<svg width="48" height="49" viewBox="0 0 48 49" fill="none" xmlns="http://www.w3.org/2000/svg">
<path d="M35.348 0.132996H12.6483C9.26055 0.179128 6.02838 1.56382 3.65808 3.98471C1.28777 6.4056 -0.0284658 9.66601 -0.00305682 13.054V35.211C-0.0284658 38.599 1.28777 41.8594 3.65808 44.2803C6.02838 46.7012 9.26055 48.0859 12.6483 48.132H35.348C38.7358 48.0859 41.9679 46.7012 44.3383 44.2803C46.7086 41.8594 48.0243 38.599 47.9989 35.211V13.054C48.0243 9.66601 46.7086 6.4056 44.3383 3.98471C41.9679 1.56382 38.7358 0.179128 35.348 0.132996Z" fill="#5D5D5D"/>
<path d="M9.4502 32.187C9.53686 32.0477 9.67616 32.039 9.86816 32.161C14.1804 34.6756 19.0898 35.9843 24.0815 35.95C27.5405 35.9411 30.968 35.2943 34.1924 34.042C34.2794 34.007 34.4063 33.955 34.5713 33.885C34.7363 33.815 34.8543 33.763 34.9243 33.729C35.0274 33.6726 35.1483 33.6573 35.2622 33.6863C35.3761 33.7152 35.4749 33.7862 35.5386 33.885C35.6866 34.094 35.6385 34.285 35.3955 34.46C35.0808 34.6867 34.6806 34.948 34.1953 35.244C32.6268 36.1614 30.9382 36.8561 29.1782 37.308C27.4148 37.7847 25.5972 38.0308 23.7705 38.04C21.1344 38.055 18.5192 37.5718 16.0625 36.616C13.6687 35.6838 11.4636 34.3247 9.55518 32.605C9.51161 32.5756 9.4752 32.537 9.44824 32.4919C9.42128 32.4468 9.40467 32.3963 9.39941 32.344C9.40055 32.2878 9.41808 32.2331 9.4502 32.187ZM17.3154 24.74C17.2838 23.645 17.5944 22.5674 18.2036 21.657C18.8105 20.7914 19.6544 20.1198 20.6343 19.723C21.7478 19.2783 22.9171 18.9883 24.1094 18.861C24.58 18.809 25.3465 18.7393 26.4092 18.652V18.208C26.4746 17.4404 26.3495 16.6684 26.0444 15.961C25.8463 15.6952 25.584 15.4839 25.2822 15.3468C24.9804 15.2097 24.6488 15.1513 24.3184 15.177H24.1094C23.5708 15.2157 23.054 15.406 22.6191 15.726C22.1972 16.0464 21.9091 16.5116 21.8096 17.032C21.7993 17.175 21.7426 17.3109 21.6484 17.4191C21.5543 17.5273 21.4279 17.602 21.2876 17.632L18.2812 17.266C17.9859 17.196 17.8381 17.0393 17.8374 16.796C17.839 16.7341 17.8479 16.6727 17.8643 16.613C17.9655 15.9171 18.2124 15.2504 18.5884 14.6562C18.9643 14.0619 19.461 13.5535 20.0464 13.164C21.2665 12.395 22.6681 11.962 24.1094 11.909H24.7632C26.4539 11.8078 28.1192 12.3599 29.4146 13.451C29.5892 13.6262 29.7505 13.814 29.8975 14.013C30.0265 14.1837 30.1441 14.3627 30.2495 14.549C30.3577 14.764 30.4369 14.9923 30.4854 15.228C30.5554 15.528 30.6086 15.728 30.6416 15.842C30.6921 16.0828 30.7182 16.328 30.7202 16.574C30.7372 16.948 30.7466 17.174 30.7466 17.24V23.564C30.7435 23.9859 30.8108 24.4054 30.9463 24.805C31.035 25.0912 31.1627 25.3638 31.3262 25.615C31.4475 25.7803 31.6476 26.047 31.9263 26.415C32.018 26.5362 32.0727 26.6814 32.0835 26.833C32.0811 26.9065 32.0605 26.9783 32.0239 27.0421C31.9873 27.1059 31.9358 27.1598 31.8735 27.199C30.4275 28.453 29.6438 29.1323 29.5225 29.237C29.4132 29.3148 29.2846 29.3609 29.1509 29.3702C29.0171 29.3796 28.8831 29.3518 28.7642 29.29C28.5409 29.1008 28.3277 28.9006 28.1245 28.69C27.9425 28.498 27.8114 28.359 27.7324 28.272C27.5969 28.109 27.4705 27.9387 27.3535 27.762C27.1795 27.51 27.0533 27.34 26.9873 27.253C26.2313 28.1684 25.236 28.8559 24.1123 29.239C23.3966 29.4291 22.6578 29.5173 21.9175 29.501C21.3127 29.5225 20.7095 29.4238 20.1431 29.2108C19.5766 28.9978 19.058 28.6746 18.6172 28.26C18.1669 27.7964 17.8185 27.2437 17.5942 26.6376C17.37 26.0314 17.2752 25.385 17.3154 24.74ZM21.8096 24.218C21.7798 24.8055 21.96 25.3844 22.3184 25.851C22.4842 26.0522 22.6946 26.2123 22.9326 26.3188C23.1706 26.4253 23.4299 26.4754 23.6904 26.465C23.7654 26.4626 23.8401 26.4539 23.9136 26.439C23.9795 26.4254 24.0461 26.4167 24.1133 26.413C24.4814 26.3138 24.8238 26.1364 25.1172 25.8929C25.4105 25.6494 25.6481 25.3455 25.8135 25.002C26.0082 24.663 26.1537 24.298 26.2456 23.918C26.3284 23.6058 26.3805 23.2863 26.4014 22.964C26.41 22.72 26.4146 22.32 26.4146 21.764V21.11C25.6423 21.0863 24.8696 21.1564 24.1143 21.319C23.4431 21.4386 22.8389 21.799 22.4146 22.3326C21.9902 22.8661 21.7751 23.5361 21.8096 24.217V24.218ZM32.7842 32.632C32.8249 32.5546 32.8778 32.484 32.9404 32.423C33.3217 32.1532 33.746 31.9503 34.1953 31.823C34.8268 31.6529 35.4758 31.5563 36.1294 31.535C36.2964 31.5167 36.4652 31.5255 36.6294 31.561C37.4141 31.6277 37.8845 31.7583 38.0405 31.953C38.1182 32.0968 38.153 32.26 38.1406 32.423V32.606C38.1102 33.3496 37.9406 34.0809 37.6406 34.762C37.3502 35.5323 36.8743 36.2192 36.2554 36.762C36.1904 36.8207 36.1078 36.8559 36.0205 36.862C35.9856 36.8609 35.9514 36.852 35.9204 36.836C35.8154 36.784 35.7903 36.688 35.8413 36.549C36.3375 35.5561 36.6649 34.4875 36.8096 33.387C36.8217 33.2399 36.7848 33.0929 36.7046 32.969C36.5306 32.7597 36.0425 32.655 35.2412 32.655C34.9412 32.655 34.5953 32.673 34.1963 32.708C33.761 32.76 33.3612 32.812 32.9966 32.864C32.9229 32.8731 32.8484 32.8546 32.7876 32.812C32.7729 32.8005 32.762 32.7845 32.7573 32.7664C32.7526 32.7483 32.754 32.7292 32.7612 32.712C32.7624 32.6837 32.7699 32.656 32.7832 32.631L32.7842 32.632Z" fill="white"/>
</svg>
