<svg width="48" height="48" viewBox="0 0 48 48" fill="none" xmlns="http://www.w3.org/2000/svg">
<path d="M35.347 0H12.6469C9.25901 0.0458707 6.02698 1.43048 3.65662 3.85143C1.28626 6.27238 -0.029698 9.53295 -0.00402585 12.921V35.078C-0.029698 38.4661 1.28626 41.7266 3.65662 44.1476C6.02698 46.5685 9.25901 47.9531 12.6469 47.999H35.347C38.735 47.9531 41.9668 46.5686 44.3373 44.1476C46.7078 41.7267 48.0243 38.4662 47.9989 35.078V12.921C48.0243 9.53285 46.7078 6.27229 44.3373 3.85137C41.9668 1.43045 38.735 0.0458704 35.347 0Z" fill="#F876AA"/>
<path d="M37.7148 18.204C37.3412 17.3185 36.8816 16.4718 36.3427 15.676C35.1149 13.8551 33.4997 12.3283 31.6123 11.2054C29.7248 10.0824 27.6119 9.39098 25.4258 9.1807C23.2396 8.97041 21.0342 9.24648 18.9673 9.9891C16.9004 10.7317 15.0236 11.9225 13.4712 13.476C12.7978 14.1501 12.1896 14.8868 11.6557 15.676C10.5666 17.2876 9.80508 19.0976 9.41403 21.003C9.01108 22.9827 9.01108 25.0233 9.41403 27.003C9.80689 28.9079 10.5682 30.7175 11.6557 32.33C12.7246 33.915 14.0892 35.279 15.6748 36.347C18.1332 38.0081 21.0325 38.8957 23.9995 38.8957C26.9665 38.8957 29.8653 38.0081 32.3237 36.347C33.909 35.2786 35.2736 33.9148 36.3427 32.33C37.4297 30.7172 38.1915 28.9077 38.5849 27.003C38.9879 25.0233 38.9879 22.9827 38.5849 21.003C38.3879 20.0436 38.0964 19.1061 37.7148 18.204ZM24 11.286C27.0936 11.282 30.0815 12.4107 32.3999 14.459C32.3689 14.506 30.5578 17.259 25.7588 19.059C24.3452 16.4818 22.7579 14.0037 21.0078 11.642C21.9875 11.405 22.992 11.2855 24 11.286ZM20.9551 11.655L20.916 11.662C20.9291 11.6605 20.9422 11.6582 20.9551 11.655ZM18.5761 12.502C20.2884 14.8512 21.8644 17.2965 23.2968 19.826C19.4652 20.8362 15.5215 21.358 11.5591 21.379C11.9641 19.4581 12.8085 17.6571 14.0259 16.117C15.2432 14.5769 16.8007 13.3396 18.5761 12.502ZM14.5439 32.495C12.4421 30.1633 11.2813 27.1342 11.2861 23.995C11.2861 23.86 11.2928 23.727 11.2968 23.595C15.712 23.6125 20.1075 23.0024 24.351 21.783C24.715 22.496 25.0638 23.222 25.3818 23.945C25.2138 23.99 25.0468 24.045 24.8818 24.097C20.5822 25.638 16.9354 28.5965 14.541 32.486L14.5439 32.495ZM24.0009 36.714C21.1155 36.7175 18.3154 35.7349 16.0649 33.929L15.9009 33.799L16.0649 33.929L16.187 34.022C16.187 34.022 18.625 28.708 26.165 26.08C26.193 26.069 26.223 26.063 26.25 26.054C27.4595 29.1778 28.3684 32.4098 28.9648 35.706C27.3946 36.373 25.706 36.7158 24 36.714H24.0009ZM31.1059 34.543C30.5419 31.4511 29.7135 28.4133 28.6299 25.463C31.2801 25.07 33.9846 25.2594 36.5542 26.018C36.2775 27.7361 35.6509 29.3791 34.7138 30.8455C33.7768 32.3118 32.5489 33.5703 31.1059 34.543ZM27.8569 23.455C27.7659 23.238 27.677 23.019 27.582 22.8C27.318 22.177 27.0318 21.561 26.7358 20.955C31.7578 18.905 33.7968 15.955 33.8198 15.924C35.6659 18.1634 36.687 20.9689 36.7119 23.871C33.7978 23.2861 30.8119 23.1462 27.8559 23.456L27.8569 23.455Z" fill="white"/>
</svg>
