<svg width="49" height="49" viewBox="0 0 49 49" fill="none" xmlns="http://www.w3.org/2000/svg">
<path d="M36.2509 0.632019H13.3807C9.96672 0.678416 6.70985 2.07378 4.32117 4.51343C1.93248 6.95307 0.606038 10.2388 0.631714 13.653V35.98C0.606038 39.3942 1.93248 42.68 4.32117 45.1196C6.70985 47.5592 9.96672 48.9546 13.3807 49.001H36.2509C39.665 48.9549 42.9222 47.5596 45.3109 45.1199C47.6997 42.6802 49.0258 39.3943 48.9999 35.98V13.653C49.0258 10.2387 47.6997 6.95286 45.3109 4.51315C42.9222 2.07345 39.665 0.678154 36.2509 0.632019Z" fill="#FF646C"/>
<path d="M27.3577 10.992L27.3475 17.04L27.3367 23.088L26.8367 21.688L26.1917 35.152C26.8247 36.937 27.1638 37.892 27.1678 37.895C27.1718 37.898 27.5316 37.92 27.9676 37.942C29.2846 38.007 30.9194 38.142 32.1614 38.302C32.3437 38.3331 32.5288 38.3465 32.7137 38.342C32.7307 38.328 32.7348 32.172 32.7308 24.658L32.7195 10.999L27.3577 10.992Z" fill="#B1060F"/>
<path d="M17.6538 10.974V24.647C17.6538 32.167 17.6604 38.327 17.6714 38.338C17.6824 38.349 18.1465 38.302 18.7085 38.238C19.2705 38.174 20.0447 38.098 20.4307 38.066C21.0207 38.016 22.7917 37.904 22.9937 37.9C23.0557 37.9 23.0574 37.594 23.0654 32.108L23.0767 26.316L23.5059 27.526C23.5709 27.713 23.5917 27.771 23.6567 27.954L24.3018 14.493C24.1648 14.108 24.2365 14.309 24.0815 13.871C23.5565 12.384 23.1098 11.128 23.0918 11.071L23.0557 10.971H17.6558L17.6538 10.974Z" fill="#B1060F"/>
<path d="M32.7298 24.651L32.7186 10.992H27.3577L27.3475 17.04L27.3367 23.088L26.8367 21.688L26.1917 35.152C26.8247 36.937 27.1638 37.892 27.1678 37.895C27.1718 37.898 27.5316 37.92 27.9676 37.942C29.2846 38.007 30.9194 38.142 32.1614 38.302C32.3437 38.3331 32.5288 38.3465 32.7137 38.342C32.7297 38.32 32.7338 32.164 32.7298 24.651Z" fill="white"/>
<path d="M23.0884 11.072L23.0527 10.972H17.6528V24.649C17.6528 32.169 17.6594 38.329 17.6704 38.34C17.6814 38.351 18.1455 38.304 18.7075 38.24C19.2695 38.176 20.0437 38.1 20.4297 38.068C21.0197 38.018 22.7907 37.906 22.9927 37.902C23.0547 37.902 23.0565 37.596 23.0645 32.11L23.0757 26.318L23.5044 27.528C23.5694 27.715 23.5908 27.773 23.6558 27.956L24.3008 14.495C24.1638 14.11 24.2356 14.311 24.0806 13.873C23.5536 12.385 23.1074 11.129 23.0884 11.072Z" fill="white"/>
<path d="M17.6538 10.974V18.65L23.0615 32.993C23.0615 32.665 23.0615 32.485 23.0615 32.111L23.0728 26.319L23.5015 27.529C25.8765 34.268 27.1556 37.883 27.1636 37.89C27.1716 37.897 27.5264 37.915 27.9634 37.937C29.2804 38.002 30.9157 38.137 32.1577 38.297C32.3397 38.3281 32.524 38.3415 32.7085 38.337C32.7185 38.326 32.7266 35.309 32.7266 31.051L27.3486 15.578V17.043L27.3384 23.091L26.8384 21.691C26.3524 20.32 26.0278 19.401 24.0728 13.879C23.5478 12.392 23.1005 11.136 23.0835 11.079L23.0464 10.979H17.6538V10.974Z" fill="url(#paint0_radial_1_597)"/>
<path d="M17.6538 10.974L23.0718 26.328V26.321L23.4995 27.531C25.8785 34.267 27.1575 37.881 27.1655 37.888C27.1735 37.895 27.5288 37.913 27.9658 37.935C29.2828 38 30.9177 38.135 32.1597 38.295C32.3403 38.3261 32.5233 38.3395 32.7065 38.335L27.3354 23.085L26.8354 21.685C26.3494 20.314 26.0248 19.395 24.0698 13.873C23.5448 12.386 23.0976 11.13 23.0806 11.073L23.0435 10.973H20.3438H17.6436L17.6538 10.974Z" fill="white"/>
<defs>
<radialGradient id="paint0_radial_1_597" cx="0" cy="0" r="1" gradientUnits="userSpaceOnUse" gradientTransform="translate(-6320.98 -15265.1) rotate(-10.7891) scale(0.94789 37.5094)">
<stop/>
<stop offset="1" stop-opacity="0"/>
</radialGradient>
</defs>
</svg>
