<svg width="48" height="48" viewBox="0 0 48 48" fill="none" xmlns="http://www.w3.org/2000/svg">
<path d="M35.3475 0H12.6478C9.25996 0.0461318 6.02756 1.43079 3.65709 3.85165C1.28663 6.27252 -0.0296727 9.53292 -0.00452911 12.921V35.077C-0.0296727 38.4651 1.28663 41.7255 3.65709 44.1463C6.02756 46.5672 9.25996 47.9519 12.6478 47.998H35.3475C38.7353 47.9519 41.9675 46.5672 44.3378 44.1463C46.7081 41.7254 48.0238 38.465 47.9984 35.077V12.921C48.0238 9.53301 46.7081 6.27261 44.3378 3.85172C41.9675 1.43082 38.7353 0.0461322 35.3475 0Z" fill="#67E28C"/>
<path d="M23.8301 10.238C20.0751 10.238 16.474 11.7297 13.8188 14.3848C11.1637 17.0399 9.67188 20.6411 9.67188 24.396C9.67174 26.2553 10.0381 28.0965 10.7495 29.8143C11.461 31.5322 12.5037 33.0931 13.8184 34.4079C15.1331 35.7227 16.6938 36.7656 18.4116 37.4772C20.1294 38.1888 21.9707 38.555 23.8301 38.555C25.6895 38.5551 27.5306 38.189 29.2485 37.4775C30.9665 36.766 32.5274 35.7231 33.8423 34.4083C35.1572 33.0935 36.2005 31.5326 36.9121 29.8146C37.6237 28.0967 37.9897 26.2555 37.9897 24.396C37.9896 22.5366 37.6233 20.6955 36.9116 18.9777C36.1999 17.2599 35.1572 15.6991 33.8423 14.3844C32.5274 13.0697 30.9664 12.0268 29.2485 11.3154C27.5306 10.604 25.6895 10.2379 23.8301 10.238ZM30.3237 30.658C30.2633 30.757 30.184 30.8432 30.0903 30.9116C29.9966 30.98 29.8906 31.0292 29.7778 31.0565C29.6651 31.0838 29.5482 31.0886 29.4336 31.0707C29.319 31.0528 29.2089 31.0124 29.1099 30.952C25.7859 28.92 21.6009 28.461 16.6729 29.587C16.5599 29.6128 16.4428 29.616 16.3286 29.5966C16.2144 29.5771 16.1054 29.5354 16.0073 29.4737C15.9093 29.4121 15.8243 29.3317 15.7573 29.2372C15.6903 29.1427 15.6424 29.0359 15.6167 28.923C15.5907 28.8101 15.5872 28.6931 15.6064 28.5788C15.6257 28.4645 15.6674 28.3551 15.729 28.2569C15.7906 28.1587 15.8708 28.0736 15.9653 28.0066C16.0599 27.9395 16.1668 27.8917 16.2798 27.866C21.6748 26.633 26.2998 27.166 30.0308 29.444C30.1297 29.5045 30.2159 29.5838 30.2842 29.6776C30.3525 29.7713 30.4015 29.8776 30.4287 29.9903C30.4559 30.1031 30.4609 30.22 30.4429 30.3346C30.4249 30.4492 30.3842 30.559 30.3237 30.658ZM32.0566 26.804C31.9811 26.928 31.882 27.0359 31.7646 27.1213C31.6473 27.2068 31.5143 27.2681 31.373 27.3018C31.2318 27.3356 31.0852 27.341 30.9419 27.3179C30.7986 27.2948 30.6615 27.2435 30.5381 27.167C26.2394 24.7706 21.1653 24.1772 16.4297 25.517C16.1495 25.6018 15.8472 25.5721 15.5889 25.4343C15.3306 25.2965 15.1374 25.062 15.0518 24.782C14.9673 24.5017 14.9976 24.1993 15.1357 23.9412C15.2739 23.6831 15.509 23.4902 15.7891 23.405C18.4311 22.6446 21.1984 22.4193 23.9287 22.7423C26.659 23.0653 29.2972 23.9301 31.689 25.286C31.8128 25.3614 31.9205 25.4606 32.0059 25.5778C32.0912 25.6949 32.1527 25.8278 32.1865 25.9688C32.2204 26.1098 32.2255 26.2561 32.2026 26.3992C32.1797 26.5424 32.1289 26.6796 32.0527 26.803L32.0566 26.804ZM32.2061 22.79C27.6421 20.08 20.1138 19.831 15.7568 21.153C15.4209 21.2549 15.0581 21.2192 14.7485 21.0538C14.4389 20.8884 14.208 20.6068 14.106 20.271C14.0554 20.1046 14.0377 19.9299 14.0547 19.7568C14.0716 19.5837 14.1227 19.4157 14.2046 19.2623C14.2865 19.1089 14.3978 18.9731 14.5322 18.8627C14.6666 18.7524 14.8214 18.6695 14.9878 18.619C19.9878 17.101 28.3036 17.394 33.5576 20.512C33.8593 20.6917 34.0776 20.9838 34.1641 21.3241C34.2505 21.6644 34.1984 22.0251 34.019 22.327C33.9304 22.4765 33.8129 22.607 33.6738 22.7112C33.5347 22.8153 33.3764 22.8911 33.208 22.9341C33.0396 22.977 32.8649 22.9864 32.6929 22.9617C32.5209 22.937 32.3555 22.8787 32.2061 22.79Z" fill="white"/>
</svg>
